<?xml version="1.0" encoding="utf-8"?>
<!-- Generator: Adobe Illustrator 16.0.0, SVG Export Plug-In . SVG Version: 6.00 Build 0)  -->
<!DOCTYPE svg PUBLIC "-//W3C//DTD SVG 1.1//EN" "http://www.w3.org/Graphics/SVG/1.1/DTD/svg11.dtd">
<svg version="1.1" id="Layer_1" xmlns="http://www.w3.org/2000/svg" xmlns:xlink="http://www.w3.org/1999/xlink" x="0px" y="0px"
	 width="937.5px" height="1000px" viewBox="0 0 937.5 1000" enable-background="new 0 0 937.5 1000" xml:space="preserve">
<path fill="#333333" d="M0,793.088v-585.6c0-48.475,17.161-89.874,51.484-124.196s75.722-51.484,124.196-51.484h585.6
	c48.475,0,89.873,17.161,124.195,51.484c34.323,34.323,51.484,75.721,51.484,124.196v585.6c0,48.475-17.161,89.873-51.484,124.196
	c-34.322,34.322-75.721,51.483-124.195,51.483h-585.6c-48.475,0-89.874-17.161-124.196-51.483C17.161,882.961,0,841.562,0,793.088z
	 M156.16,793.088c0,5.205,1.952,9.76,5.856,13.664c3.904,3.904,8.458,5.856,13.664,5.856H292.8c5.206,0,9.76-1.871,13.664-5.612
	c3.904-3.741,5.856-8.377,5.856-13.908V402.688c0-5.206-1.952-9.76-5.856-13.665c-3.904-3.904-8.458-5.856-13.664-5.856H175.68
	c-5.206,0-9.76,1.952-13.664,5.856c-3.904,3.904-5.856,8.458-5.856,13.665V793.088L156.16,793.088z M156.16,263.608
	c0,20.821,7.32,38.633,21.96,53.436c14.64,14.803,32.371,22.204,53.192,22.204c21.797,0,39.69-7.482,53.68-22.448
	c14.64-14.64,21.96-32.371,21.96-53.192s-7.401-38.633-22.204-53.436s-32.615-22.204-53.436-22.204s-38.552,7.401-53.192,22.204
	C163.48,224.975,156.16,242.787,156.16,263.608L156.16,263.608z M351.36,793.088c0,5.205,3.09,9.76,9.271,13.664
	s12.363,5.856,18.544,5.856H490.44c4.555,0,8.54-1.952,11.956-5.856s5.123-8.459,5.123-13.664V580.32
	c0-56.934,23.262-85.4,69.784-85.4c19.195,0,31.883,4.229,38.064,12.688c6.181,8.458,9.271,23.749,9.271,45.872v239.607
	c0,5.205,2.44,9.76,7.32,13.664s10.248,5.856,16.104,5.856H761.28c5.205,0,9.76-1.871,13.664-5.612
	c3.903-3.741,5.855-8.377,5.855-13.908V528.104c0-51.077-14.722-90.198-44.164-117.363c-29.442-27.166-70.841-40.748-124.195-40.748
	c-36.763,0-68.809,9.272-96.137,27.815c-5.53,3.254-8.458,5.693-8.784,7.32c0-14.64-6.994-21.96-20.983-21.96h-107.36
	c-6.507,0-12.77,1.627-18.788,4.88c-6.019,3.253-9.027,7.32-9.027,12.2V793.088L351.36,793.088z"/>
</svg>
